<svg xmlns="http://www.w3.org/2000/svg" viewBox="0 0 900 620" role="img" aria-label="Campus housing illustration">
  <rect width="900" height="620" fill="#e8efe9"/>
  <rect x="90" y="190" width="260" height="310" rx="10" fill="#ffffff" stroke="#13795b" stroke-width="10"/>
  <rect x="410" y="135" width="320" height="365" rx="10" fill="#fffaf2" stroke="#d98841" stroke-width="10"/>
  <path d="M80 505h700" stroke="#18201b" stroke-width="12" stroke-linecap="round"/>
  <path d="M150 255h55m55 0h55M150 325h55m55 0h55M150 395h55m55 0h55" stroke="#13795b" stroke-width="18" stroke-linecap="round"/>
  <path d="M480 210h70m70 0h70M480 285h70m70 0h70M480 360h70m70 0h70" stroke="#d98841" stroke-width="20" stroke-linecap="round"/>
  <rect x="520" y="420" width="95" height="80" fill="#13795b"/>
  <circle cx="760" cy="465" r="44" fill="#13795b"/>
  <path d="M760 510v-95m-38 35h76" stroke="#ffffff" stroke-width="8" stroke-linecap="round"/>
  <circle cx="185" cy="120" r="48" fill="#d98841"/>
</svg>
